<svg xmlns="http://www.w3.org/2000/svg" viewBox="0 0 1800 1000" width="1800" height="1000" role="img" aria-label="The tracery of a rose window"><title>The tracery of a rose window</title><rect width="1800" height="1000" fill="#333C48"/><circle cx="900" cy="480" r="340" fill="none" stroke="#303945" stroke-width="9"/><circle cx="900" cy="480" r="210.8" fill="none" stroke="#303945" stroke-width="7.2"/><circle cx="1175.4" cy="480" r="57.8" fill="none" stroke="#222932" stroke-width="6.3"/><line x1="1110.8" y1="480" x2="1175.4" y2="480" stroke="#222932" stroke-width="5.4"/><circle cx="1138.5" cy="617.7" r="57.8" fill="none" stroke="#222932" stroke-width="6.3"/><line x1="1082.6" y1="585.4" x2="1138.5" y2="617.7" stroke="#222932" stroke-width="5.4"/><circle cx="1037.7" cy="718.5" r="57.8" fill="none" stroke="#222932" stroke-width="6.3"/><line x1="1005.4" y1="662.6" x2="1037.7" y2="718.5" stroke="#222932" stroke-width="5.4"/><circle cx="900" cy="755.4" r="57.8" fill="none" stroke="#222932" stroke-width="6.3"/><line x1="900" y1="690.8" x2="900" y2="755.4" stroke="#222932" stroke-width="5.4"/><circle cx="762.3" cy="718.5" r="57.8" fill="none" stroke="#222932" stroke-width="6.3"/><line x1="794.6" y1="662.6" x2="762.3" y2="718.5" stroke="#222932" stroke-width="5.4"/><circle cx="661.5" cy="617.7" r="57.8" fill="none" stroke="#222932" stroke-width="6.3"/><line x1="717.4" y1="585.4" x2="661.5" y2="617.7" stroke="#222932" stroke-width="5.4"/><circle cx="624.6" cy="480" r="57.8" fill="none" stroke="#222932" stroke-width="6.3"/><line x1="689.2" y1="480" x2="624.6" y2="480" stroke="#222932" stroke-width="5.4"/><circle cx="661.5" cy="342.3" r="57.8" fill="none" stroke="#222932" stroke-width="6.3"/><line x1="717.4" y1="374.6" x2="661.5" y2="342.3" stroke="#222932" stroke-width="5.4"/><circle cx="762.3" cy="241.5" r="57.8" fill="none" stroke="#222932" stroke-width="6.3"/><line x1="794.6" y1="297.4" x2="762.3" y2="241.5" stroke="#222932" stroke-width="5.4"/><circle cx="900" cy="204.6" r="57.8" fill="none" stroke="#222932" stroke-width="6.3"/><line x1="900" y1="269.2" x2="900" y2="204.6" stroke="#222932" stroke-width="5.4"/><circle cx="1037.7" cy="241.5" r="57.8" fill="none" stroke="#222932" stroke-width="6.3"/><line x1="1005.4" y1="297.4" x2="1037.7" y2="241.5" stroke="#222932" stroke-width="5.4"/><circle cx="1138.5" cy="342.3" r="57.8" fill="none" stroke="#222932" stroke-width="6.3"/><line x1="1082.6" y1="374.6" x2="1138.5" y2="342.3" stroke="#222932" stroke-width="5.4"/><circle cx="900" cy="480" r="68" fill="#303945" opacity="0.5"/></svg>
