<svg xmlns="http://www.w3.org/2000/svg" viewBox="0 0 1800 1100" width="1800" height="1100" role="img" aria-label="A Romanesque arcade drawn in elevation"><title>A Romanesque arcade drawn in elevation</title><rect width="1800" height="1100" fill="#333C48"/><rect y="354.8" width="1800" height="591.2" fill="#2A323D"/><path d="M64.8,946V506A115.2,115.2 0 0 1 295.2,506V946Z" fill="#222932"/><path d="M28.8,946V506A151.2,151.2 0 0 1 331.2,506V946H295.2V506A115.2,115.2 0 0 0 64.8,506V946Z" fill="#303945"/><rect x="16.2" y="495.9" width="61.2" height="12.2" fill="#28303A"/><rect x="282.6" y="495.9" width="61.2" height="12.2" fill="#28303A"/><path d="M424.8,946V506A115.2,115.2 0 0 1 655.2,506V946Z" fill="#222932"/><path d="M388.8,946V506A151.2,151.2 0 0 1 691.2,506V946H655.2V506A115.2,115.2 0 0 0 424.8,506V946Z" fill="#303945"/><rect x="376.2" y="495.9" width="61.2" height="12.2" fill="#28303A"/><rect x="642.6" y="495.9" width="61.2" height="12.2" fill="#28303A"/><path d="M784.8,946V506A115.2,115.2 0 0 1 1015.2,506V946Z" fill="#222932"/><path d="M748.8,946V506A151.2,151.2 0 0 1 1051.2,506V946H1015.2V506A115.2,115.2 0 0 0 784.8,506V946Z" fill="#303945"/><rect x="736.2" y="495.9" width="61.2" height="12.2" fill="#28303A"/><rect x="1002.6" y="495.9" width="61.2" height="12.2" fill="#28303A"/><path d="M1144.8,946V506A115.2,115.2 0 0 1 1375.2,506V946Z" fill="#222932"/><path d="M1108.8,946V506A151.2,151.2 0 0 1 1411.2,506V946H1375.2V506A115.2,115.2 0 0 0 1144.8,506V946Z" fill="#303945"/><rect x="1096.2" y="495.9" width="61.2" height="12.2" fill="#28303A"/><rect x="1362.6" y="495.9" width="61.2" height="12.2" fill="#28303A"/><path d="M1504.8,946V506A115.2,115.2 0 0 1 1735.2,506V946Z" fill="#222932"/><path d="M1468.8,946V506A151.2,151.2 0 0 1 1771.2,506V946H1735.2V506A115.2,115.2 0 0 0 1504.8,506V946Z" fill="#303945"/><rect x="1456.2" y="495.9" width="61.2" height="12.2" fill="#28303A"/><rect x="1722.6" y="495.9" width="61.2" height="12.2" fill="#28303A"/><rect y="244.8" width="1800" height="68.2" fill="#303945"/><rect y="309.7" width="1800" height="17.6" fill="#28303A"/><rect y="946" width="1800" height="38.5" fill="#212831"/><rect y="984.5" width="1800" height="121" fill="#1A2028"/><line x1="47.1" y1="244.8" x2="47.1" y2="309.7" stroke="#28303A" stroke-width="1.4" opacity="0.6"/><line x1="135" y1="244.8" x2="135" y2="309.7" stroke="#28303A" stroke-width="1.4" opacity="0.6"/><line x1="225.9" y1="244.8" x2="225.9" y2="309.7" stroke="#28303A" stroke-width="1.4" opacity="0.6"/><line x1="317" y1="244.8" x2="317" y2="309.7" stroke="#28303A" stroke-width="1.4" opacity="0.6"/><line x1="404" y1="244.8" x2="404" y2="309.7" stroke="#28303A" stroke-width="1.4" opacity="0.6"/><line x1="492.7" y1="244.8" x2="492.7" y2="309.7" stroke="#28303A" stroke-width="1.4" opacity="0.6"/><line x1="584.8" y1="244.8" x2="584.8" y2="309.7" stroke="#28303A" stroke-width="1.4" opacity="0.6"/><line x1="679.4" y1="244.8" x2="679.4" y2="309.7" stroke="#28303A" stroke-width="1.4" opacity="0.6"/><line x1="768.3" y1="244.8" x2="768.3" y2="309.7" stroke="#28303A" stroke-width="1.4" opacity="0.6"/><line x1="850.8" y1="244.8" x2="850.8" y2="309.7" stroke="#28303A" stroke-width="1.4" opacity="0.6"/><line x1="943.5" y1="244.8" x2="943.5" y2="309.7" stroke="#28303A" stroke-width="1.4" opacity="0.6"/><line x1="1032.9" y1="244.8" x2="1032.9" y2="309.7" stroke="#28303A" stroke-width="1.4" opacity="0.6"/><line x1="1125.8" y1="244.8" x2="1125.8" y2="309.7" stroke="#28303A" stroke-width="1.4" opacity="0.6"/><line x1="1212.2" y1="244.8" x2="1212.2" y2="309.7" stroke="#28303A" stroke-width="1.4" opacity="0.6"/><line x1="1308.1" y1="244.8" x2="1308.1" y2="309.7" stroke="#28303A" stroke-width="1.4" opacity="0.6"/><line x1="1398.1" y1="244.8" x2="1398.1" y2="309.7" stroke="#28303A" stroke-width="1.4" opacity="0.6"/><line x1="1485.8" y1="244.8" x2="1485.8" y2="309.7" stroke="#28303A" stroke-width="1.4" opacity="0.6"/><line x1="1572.3" y1="244.8" x2="1572.3" y2="309.7" stroke="#28303A" stroke-width="1.4" opacity="0.6"/><line x1="1661.6" y1="244.8" x2="1661.6" y2="309.7" stroke="#28303A" stroke-width="1.4" opacity="0.6"/><line x1="1759.1" y1="244.8" x2="1759.1" y2="309.7" stroke="#28303A" stroke-width="1.4" opacity="0.6"/></svg>
